<?xml version="1.0" ?><svg height="64" id="svg8" version="1.1" viewBox="0 0 16.933333 16.933333" width="64" xmlns="http://www.w3.org/2000/svg" xmlns:cc="http://creativecommons.org/ns#" xmlns:dc="http://purl.org/dc/elements/1.1/" xmlns:inkscape="http://www.inkscape.org/namespaces/inkscape" xmlns:rdf="http://www.w3.org/1999/02/22-rdf-syntax-ns#" xmlns:sodipodi="http://sodipodi.sourceforge.net/DTD/sodipodi-0.dtd" xmlns:svg="http://www.w3.org/2000/svg"><defs id="defs2"/><g id="layer1"><path d="m 7.890519,8.2020832 -0.13065,0.87639 c -0.3477177,0.078582 -0.6797232,0.2151235 -0.9821,0.4039 l -0.70954,-0.52522 -0.81499,0.81437 0.52692,0.7116498 c -0.1899328,0.301702 -0.3276986,0.633223 -0.40752,0.98066 l -0.87471,0.13024 v 1.15276 l 0.87588,0.13023 c 0.078644,0.347914 0.2153538,0.680096 0.40439,0.9826 l -0.52536,0.70971 0.8146,0.81515 0.71266,-0.52754 c 0.3014835,0.189483 0.6326914,0.326932 0.97977,0.4066 l 0.13028,0.876 h 1.15232 l 0.13065,-0.87716 c 0.3477205,-0.07858 0.6797294,-0.215116 0.98211,-0.40389 l 0.7103,0.52599 0.81502,-0.81515 -0.52732,-0.71166 c 0.189792,-0.301725 0.327422,-0.633241 0.40712,-0.98065 l 0.87508,-0.13023 v -1.15238 l -0.87625,-0.13062 c -0.07865,-0.347912 -0.215368,-0.68009 -0.40441,-0.98259 l 0.52536,-0.7093298 -0.81497,-0.81476 -0.71187,0.52715 C 9.8517085,9.2946428 9.5203609,9.1570593 9.173119,9.0773132 l -0.13065,-0.87523 z" id="path10135" style="display:inline;opacity:1;fill:#e2e7fa;fill-opacity:1;stroke:none;stroke-width:0.529167;stroke-linecap:round;stroke-linejoin:round;stroke-miterlimit:4;stroke-dasharray:none;stroke-opacity:1;paint-order:normal"/><path d="m 10.054396,12.17068 c 0,0.876665 -0.7108457,1.587343 -1.5877183,1.587343 -0.8768727,0 -1.5877184,-0.710678 -1.5877184,-1.587343 0,-0.876665 0.7108457,-1.587343 1.5877184,-1.587343 0.8768726,0 1.5877183,0.710678 1.5877183,1.587343 z" id="ellipse10142" style="display:inline;opacity:1;fill:#a8c5f7;fill-opacity:1;stroke:none;stroke-width:0.529167;stroke-linecap:round;stroke-linejoin:round;stroke-miterlimit:4;stroke-dasharray:none;stroke-opacity:1;paint-order:normal"/><path d="M 8.5131753,8.2020832 8.6439168,9.077482 c 0.347269,0.07964 0.6786612,0.2171235 0.9803018,0.4066935 L 9.8495277,9.3172607 C 9.6338312,9.2120423 9.4069015,9.1316026 9.1730834,9.077482 L 9.0423419,8.2020832 Z M 10.86497,8.957076 10.561112,9.1823851 11.15074,9.7720133 10.625708,10.481014 c 0.188967,0.30261 0.325583,0.63489 0.40411,0.982886 l 0.876432,0.130741 v 1.152384 l -0.874882,0.130225 c -0.07976,0.347293 -0.217423,0.678689 -0.40721,0.980302 l 0.527099,0.711584 -0.589628,0.590145 0.303857,0.225309 0.814938,-0.815454 -0.5271,-0.711584 c 0.189788,-0.301613 0.327447,-0.633009 0.40721,-0.980302 l 0.874883,-0.130225 V 11.594641 L 11.558984,11.4639 c -0.07853,-0.347996 -0.215142,-0.680276 -0.40411,-0.982886 l 0.525033,-0.7090007 z m -1.2386844,5.901448 c -0.3024455,0.188878 -0.6345447,0.325491 -0.9823688,0.40411 l -0.1307415,0.876949 h 0.5291666 l 0.1307415,-0.876949 c 0.23362,-0.05399 0.4603734,-0.134258 0.6759276,-0.239262 z" id="path10139" style="display:inline;opacity:1;fill:#c4d2f0;fill-opacity:1;stroke:none;stroke-width:0.529167;stroke-linecap:round;stroke-linejoin:round;stroke-miterlimit:4;stroke-dasharray:none;stroke-opacity:1;paint-order:normal"/><path d="m 11.377105,3.9687452 h 4.233317 c 0.293162,0 0.529174,0.2360118 0.529174,0.5291745 v 1.0583181 c 0,0.2931627 -0.236012,0.5291745 -0.529174,0.5291745 h -4.233317 c -0.293162,0 -0.529174,-0.2360118 -0.529174,-0.5291745 V 4.4979197 c 0,-0.2931627 0.236012,-0.5291745 0.529174,-0.5291745 z" id="rect10125" style="display:inline;opacity:1;fill:#a8c5f7;fill-opacity:1;stroke:none;stroke-width:0.529167;stroke-linecap:round;stroke-linejoin:round;stroke-miterlimit:4;stroke-dasharray:none"/><path d="m 15.610416,3.9687499 v 1.0583333 c 0,0.2931602 -0.236006,0.5291667 -0.529166,0.5291667 h -4.233334 c 0,0.2931602 0.236007,0.5291667 0.529167,0.5291667 h 4.233333 c 0.293161,0 0.529167,-0.2360065 0.529167,-0.5291667 V 4.4979166 c 0,-0.2931602 -0.236006,-0.5291667 -0.529167,-0.5291667 z" id="path10127" style="display:inline;opacity:1;fill:#91b8fb;fill-opacity:1;stroke:none;stroke-width:0.529167;stroke-linecap:round;stroke-linejoin:round;stroke-miterlimit:4;stroke-dasharray:none"/><path d="m 11.377101,0.79374981 h 4.233325 c 0.29316,0 0.52917,0.23600979 0.52917,0.52916999 v 1.058327 c 0,0.2931602 -0.23601,0.52917 -0.52917,0.52917 h -4.233325 c -0.29316,0 -0.52917,-0.2360098 -0.52917,-0.52917 v -1.058327 c 0,-0.2931602 0.23601,-0.52916999 0.52917,-0.52916999 z" id="rect10129" style="display:inline;opacity:1;fill:#a8c5f7;fill-opacity:1;stroke:none;stroke-width:0.529167;stroke-linecap:round;stroke-linejoin:round;stroke-miterlimit:4;stroke-dasharray:none"/><path d="M 15.610416,0.79374999 V 1.8520833 c 0,0.2931602 -0.236006,0.5291667 -0.529166,0.5291667 h -4.233334 c 0,0.2931602 0.236007,0.5291666 0.529167,0.5291666 h 4.233333 c 0.293161,0 0.529167,-0.2360064 0.529167,-0.5291666 V 1.3229167 c 0,-0.2931603 -0.236006,-0.52916671 -0.529167,-0.52916671 z" id="path10131" style="display:inline;opacity:1;fill:#91b8fb;fill-opacity:1;stroke:none;stroke-width:0.529167;stroke-linecap:round;stroke-linejoin:round;stroke-miterlimit:4;stroke-dasharray:none"/><path d="m 11.641666,2.9104166 h 3.704167 v 1.0583333 h -3.704167 z" id="path10133" style="opacity:1;fill:#e4eff8;fill-opacity:1;stroke:none;stroke-width:0.52916664;stroke-linecap:butt;stroke-linejoin:round;stroke-miterlimit:4;stroke-dasharray:none;stroke-dashoffset:0;stroke-opacity:1"/><path d="m 11.377083,0.79374999 c -0.293161,0 -0.529167,0.23600641 -0.529167,0.52916661 V 2.38125 c 0,0.2931602 0.236006,0.5291666 0.529167,0.5291666 h 0.529166 c -0.29316,0 -0.529166,-0.2360064 -0.529166,-0.5291666 V 1.3229166 c 0,-0.2931602 0.236006,-0.52916661 0.529166,-0.52916661 z" id="path852" style="display:inline;opacity:1;fill:#f8f8f8;fill-opacity:1;stroke:none;stroke-width:0.529167;stroke-linecap:round;stroke-linejoin:round;stroke-miterlimit:4;stroke-dasharray:none"/><path d="M 14.816666,2.9104166 V 3.4395833 H 11.641667 V 3.96875 h 3.704166 V 2.9104166 Z" id="path10151" style="opacity:1;fill:#c4dcf0;fill-opacity:1;stroke:none;stroke-width:0.52916664;stroke-linecap:butt;stroke-linejoin:round;stroke-miterlimit:4;stroke-dasharray:none;stroke-dashoffset:0;stroke-opacity:1"/><path d="m 1.3229392,3.9687452 h 4.2333161 c 0.2931627,0 0.5291745,0.2360118 0.5291745,0.5291745 v 1.0583181 c 0,0.2931627 -0.2360118,0.5291745 -0.5291745,0.5291745 H 1.3229392 c -0.2931627,0 -0.52917449,-0.2360118 -0.52917449,-0.5291745 V 4.4979197 c 0,-0.2931627 0.23601179,-0.5291745 0.52917449,-0.5291745 z" id="rect10114" style="display:inline;opacity:1;fill:#a8c5f7;fill-opacity:1;stroke:none;stroke-width:0.529167;stroke-linecap:round;stroke-linejoin:round;stroke-miterlimit:4;stroke-dasharray:none"/><path d="m 5.5562499,3.9687499 v 1.0583333 c 0,0.2931602 -0.2360064,0.5291667 -0.5291666,0.5291667 H 0.79374999 c 0,0.2931602 0.23600641,0.5291667 0.52916661,0.5291667 h 4.2333333 c 0.2931602,0 0.5291667,-0.2360065 0.5291667,-0.5291667 V 4.4979166 c 0,-0.2931602 -0.2360065,-0.5291667 -0.5291667,-0.5291667 z" id="path10123" style="display:inline;opacity:1;fill:#91b8fb;fill-opacity:1;stroke:none;stroke-width:0.529167;stroke-linecap:round;stroke-linejoin:round;stroke-miterlimit:4;stroke-dasharray:none"/><path d="m 1.3229347,0.79374981 h 4.2333251 c 0.2931602,0 0.52917,0.23600979 0.52917,0.52916999 v 1.058327 c 0,0.2931602 -0.2360098,0.52917 -0.52917,0.52917 H 1.3229347 c -0.2931602,0 -0.52916999,-0.2360098 -0.52916999,-0.52917 v -1.058327 c 0,-0.2931602 0.23600979,-0.52916999 0.52916999,-0.52916999 z" id="rect10112" style="display:inline;opacity:1;fill:#a8c5f7;fill-opacity:1;stroke:none;stroke-width:0.529167;stroke-linecap:round;stroke-linejoin:round;stroke-miterlimit:4;stroke-dasharray:none"/><path d="M 5.5562499,0.79374999 V 1.8520833 c 0,0.2931602 -0.2360064,0.5291667 -0.5291666,0.5291667 H 0.79374999 c 0,0.2931602 0.23600641,0.5291666 0.52916661,0.5291666 h 4.2333333 c 0.2931602,0 0.5291667,-0.2360064 0.5291667,-0.5291666 V 1.3229166 c 0,-0.2931602 -0.2360065,-0.52916661 -0.5291667,-0.52916661 z" id="rect10120" style="display:inline;opacity:1;fill:#91b8fb;fill-opacity:1;stroke:none;stroke-width:0.529167;stroke-linecap:round;stroke-linejoin:round;stroke-miterlimit:4;stroke-dasharray:none"/><path d="M 1.5875,2.9104166 H 5.2916666 V 3.9687499 H 1.5875 Z" id="rect10109" style="opacity:1;fill:#e4eff8;fill-opacity:1;stroke:none;stroke-width:0.52916664;stroke-linecap:butt;stroke-linejoin:round;stroke-miterlimit:4;stroke-dasharray:none;stroke-dashoffset:0;stroke-opacity:1"/><path d="m 4.7624999,2.9104166 v 0.5291667 h -3.175 V 3.9687499 H 5.2916666 V 2.9104166 Z" id="path10154" style="opacity:1;fill:#c4dcf0;fill-opacity:1;stroke:none;stroke-width:0.52916664;stroke-linecap:butt;stroke-linejoin:round;stroke-miterlimit:4;stroke-dasharray:none;stroke-dashoffset:0;stroke-opacity:1"/><path d="M 32 40 C 31.914889 40 31.832296 40.010164 31.748047 40.013672 C 34.670341 40.14429 37.001953 42.54617 37.001953 45.5 C 37.001953 48.537561 34.53828 51 31.5 51 C 28.545451 51 26.142339 48.669676 26.011719 45.748047 C 26.008211 45.832257 26 45.914928 26 46 C 26 49.31338 28.685835 51.998047 32 51.998047 C 35.314164 51.998047 38 49.31338 38 46 C 38 42.68662 35.314164 40 32 40 z " id="path860" style="display:inline;opacity:1;fill:#f8f8f8;fill-opacity:1;stroke:none;stroke-width:2.00000119;stroke-linecap:round;stroke-linejoin:round;stroke-miterlimit:4;stroke-dasharray:none;stroke-opacity:1;paint-order:normal" transform="scale(0.26458333)"/><path d="m 8.4666666,10.583333 c -0.8768487,1.21e-4 -1.5875867,0.710859 -1.5875,1.5875 7.7e-4,0.552986 0.2893399,1.065716 0.7617105,1.353406 C 7.4892935,13.275982 7.408851,12.990858 7.4083332,12.7 c -8.67e-5,-0.876641 0.7106513,-1.587379 1.5875,-1.5875 0.2915401,7.52e-4 0.5772445,0.08174 0.8257895,0.234094 C 9.5340606,10.873298 9.0205678,10.584042 8.4666666,10.583333 Z" id="ellipse10146" style="display:inline;opacity:1;fill:#91b8fb;fill-opacity:1;stroke:none;stroke-width:0.529167;stroke-linecap:round;stroke-linejoin:round;stroke-miterlimit:4;stroke-dasharray:none;stroke-opacity:1;paint-order:normal"/><path d="M 5 3 C 3.8919929 3 3 3.8919929 3 5 L 3 9 C 3 10.108007 3.8919929 11 5 11 L 7 11 C 5.8919929 11 5 10.108007 5 9 L 5 5 C 5 3.8919929 5.8919929 3 7 3 L 5 3 z " id="path847" style="display:inline;opacity:1;fill:#f8f8f8;fill-opacity:1;stroke:none;stroke-width:2.00000119;stroke-linecap:round;stroke-linejoin:round;stroke-miterlimit:4;stroke-dasharray:none" transform="scale(0.26458333)"/><path d="m 1.3229166,3.9687499 c -0.2931602,0 -0.52916661,0.2360064 -0.52916661,0.5291666 v 1.0583334 c 0,0.2931601 0.23600641,0.5291666 0.52916661,0.5291666 h 0.5291667 c -0.2931602,0 -0.5291667,-0.2360065 -0.5291667,-0.5291666 V 4.4979165 c 0,-0.2931602 0.2360065,-0.5291666 0.5291667,-0.5291666 z" id="path850" style="display:inline;opacity:1;fill:#f8f8f8;fill-opacity:1;stroke:none;stroke-width:0.529167;stroke-linecap:round;stroke-linejoin:round;stroke-miterlimit:4;stroke-dasharray:none"/><path d="m 11.377083,3.9687499 c -0.293161,0 -0.529167,0.2360064 -0.529167,0.5291666 v 1.0583334 c 0,0.2931601 0.236006,0.5291666 0.529167,0.5291666 h 0.529166 c -0.29316,0 -0.529166,-0.2360065 -0.529166,-0.5291666 V 4.4979165 c 0,-0.2931602 0.236006,-0.5291666 0.529166,-0.5291666 z" id="path854" style="display:inline;opacity:1;fill:#f8f8f8;fill-opacity:1;stroke:none;stroke-width:0.529167;stroke-linecap:round;stroke-linejoin:round;stroke-miterlimit:4;stroke-dasharray:none"/><path d="m 29.822266,31 -0.494141,3.3125 c -0.885844,0.200195 -1.740867,0.507764 -2.556641,0.900391 l 0.845704,0.626953 c 1.142841,-0.713486 2.396728,-1.230341 3.710937,-1.527344 L 31.822266,31 Z m -6.886719,2.853516 -3.080078,3.078125 1.990234,2.689453 c -0.717856,1.140291 -1.237375,2.393883 -1.539062,3.707031 L 17,43.820312 v 4.357422 l 3.310547,0.492188 c 0.297237,1.31495 0.812876,2.569568 1.527344,3.71289 l -1.984375,2.681641 3.078125,3.082031 1.15039,-0.851562 -2.228515,-2.230469 1.984375,-2.681641 c -0.714468,-1.143322 -1.230107,-2.39794 -1.527344,-3.71289 L 19,48.177734 v -4.357422 l 3.306641,-0.492187 c 0.301687,-1.313148 0.821206,-2.56674 1.539062,-3.707031 l -1.990234,-2.689453 2.228515,-2.226563 z M 27.625,56.152344 26.775391,56.78125 c 0.814071,0.395071 1.668035,0.70513 2.552734,0.908203 L 29.820312,61 h 2 L 31.328125,57.689453 C 30.016332,57.388346 28.764465,56.8685 27.625,56.152344 Z" id="path865" style="display:inline;opacity:1;fill:#f8f8f8;fill-opacity:1;stroke:none;stroke-width:2.00000119;stroke-linecap:round;stroke-linejoin:round;stroke-miterlimit:4;stroke-dasharray:none;stroke-opacity:1;paint-order:normal" transform="scale(0.26458333)"/><path d="m 1.3224368,0.52917689 c -0.4351699,0 -0.7932399,0.35807 -0.7932399,0.79324001 v 1.0583299 c 0,0.43516 0.35807,0.7953 0.7932399,0.7953 v 0.5291698 c -0.4351699,0 -0.7932399,0.3575503 -0.7932399,0.7927102 v 1.0588498 c 0,0.43517 0.35807,0.79272 0.7932399,0.79272 h 1.85363 v 5.2932194 c 0,0.43516 0.35755,0.79271 0.79272,0.79271 h 0.2635498 v 0.31058 c -5e-5,0.13159 0.0966,0.24322 0.2268601,0.262 l 0.7012501,0.10438 c 0.0703,0.24493 0.1724398,0.50604 0.3023,0.73019 l -0.42168,0.56948 c -0.0775,0.1051 -0.0668,0.25104 0.0253,0.34364 l 0.8144197,0.81649 c 0.0926,0.0921 0.2385502,0.10284 0.3436501,0.0253 l 0.57258,-0.42529 c 0.22126,0.1277 0.4830199,0.23226 0.7255299,0.30282 l 0.1064601,0.7028 c 0.019,0.12985 0.1302499,0.22617 0.26148,0.22634 h 1.1523893 c 0.1314201,9e-5 0.2429901,-0.0963 0.2619901,-0.22634 l 0.1038699,-0.70332 c 0.2432504,-0.0663 0.5081504,-0.17717 0.7301901,-0.29869 l 0.56999,0.42168 c 0.10511,0.0775 0.25105,0.0668 0.34365,-0.0253 l 0.81442,-0.81649 c 0.0923,-0.0925 0.10322,-0.23842 0.0258,-0.34364 l -0.42064,-0.57258 c 0.12236,-0.22193 0.23445,-0.48169 0.29765,-0.72502 l 0.70487,-0.10645 c 0.12922,-0.0199 0.22451,-0.13125 0.22427,-0.262 v -0.31058 h 0.26614 c 0.43516,0 0.79271,-0.35755 0.79271,-0.79271 V 6.3494966 h 1.85364 c 0.43516,0 0.79271,-0.35755 0.79271,-0.79272 V 4.4979268 c 0,-0.4351599 -0.35755,-0.7927102 -0.79271,-0.7927102 V 3.1760468 c 0.43516,0 0.79271,-0.36014 0.79271,-0.7953 V 1.3224169 c 10e-7,-0.43517001 -0.357549,-0.79324001 -0.792709,-0.79324001 h -4.23437 c -0.43516,0 -0.79323,0.35807 -0.79323,0.79324001 v 1.0583299 c 0,0.43516 0.35807,0.7953 0.79323,0.7953 v 0.5291698 c -0.43516,0 -0.79323,0.3575503 -0.79323,0.7927102 v 1.0588498 c 0,0.43517 0.35807,0.79272 0.79323,0.79272 h 1.85157 v 5.2932194 c 0,0.15116 -0.11239,0.26355 -0.26355,0.26355 h -0.26614 v -0.31265 c -1e-5,-0.13055 -0.0952,-0.24158 -0.22427,-0.26148 l -0.70435,-0.1049 c -0.0701,-0.25613 -0.17752,-0.50649 -0.29921,-0.72864 l 0.42168,-0.5689593 c 0.0786,-0.10562 0.0676,-0.25295 -0.0258,-0.34571 l -0.8144,-0.81442 c -0.0929,-0.0933 -0.24022,-0.10405 -0.34571,-0.0253 l -0.57154,0.42116 c -0.2221607,-0.12253 -0.4753507,-0.22958 -0.7255404,-0.29766 l -0.1049001,-0.70538 c -0.019701,-0.12943 -0.13109,-0.22499 -0.262,-0.22479 H 8.7302466 V 3.7052368 h 1.0588497 c 0.14694,5.82e-4 0.2661997,-0.11869 0.2656207,-0.26562 C 10.054134,3.2934869 9.9352263,3.1754967 9.7890963,3.1760667 H 7.1448167 C 6.9984865,3.17522 6.8792566,3.2932869 6.8786867,3.4396168 c -5.821e-4,0.1471401 0.119,0.2664799 0.26613,0.26562 H 8.2010866 V 7.9375367 H 7.8905065 c -0.1307198,5e-5 -0.2418099,0.0956 -0.2614798,0.22479 l -0.10542,0.70435 c -0.2383401,0.0642 -0.5114801,0.17314 -0.72864,0.29972 l -0.5684401,-0.42219 c -0.1054899,-0.0787 -0.2528099,-0.0679 -0.3457099,0.0253 l -0.81442,0.81442 c -0.0933,0.0929 -0.10405,0.24022 -0.0253,0.34571 l 0.4222004,0.5705103 c -0.1224598,0.221918 -0.2319398,0.474488 -0.3028199,0.726568 l -0.70125,0.10542 c -0.1300599,0.0187 -0.22665,0.13009 -0.2268599,0.26148 v 0.31265 H 3.9688172 c -0.1511599,0 -0.2635499,-0.11239 -0.2635499,-0.26355 V 6.3494966 h 1.85156 c 0.43517,0 0.79272,-0.35755 0.79272,-0.79272 V 4.4979268 c 0,-0.4351599 -0.35755,-0.7927102 -0.79272,-0.7927102 V 3.1760468 c 0.43517,0 0.79272,-0.36014 0.79272,-0.7953 V 1.3224169 C 6.3495467,0.88724689 5.9919968,0.52917689 5.5568268,0.52917689 Z m 0,0.52969001 h 1.32395 v 1.5874999 h -1.32395 c -0.15116,0 -0.26355,-0.11446 -0.26355,-0.26562 V 1.3224169 c 0,-0.15116 0.11239,-0.26355 0.26355,-0.26355 z m 1.85363,0 h 2.3807298 c 0.1511602,0 0.2635501,0.11239 0.2635501,0.26355 v 1.0583299 c 0,0.15116 -0.1123899,0.26562 -0.2635501,0.26562 H 3.1760668 Z m 8.2010502,0 h 1.32188 v 1.5874999 h -1.32188 c -0.15116,0 -0.26355,-0.11446 -0.26355,-0.26562 V 1.3224169 c 0,-0.15116 0.11239,-0.26355 0.26355,-0.26355 z m 1.85157,0 h 2.3828 c 0.15115,0 0.26355,0.11239 0.26355,0.26355 v 1.0583299 c 0,0.15116 -0.1124,0.26562 -0.26355,0.26562 h -2.3828 z m -11.3765702,0.52865 c -0.1461227,1.8e-6 -0.2645782,0.1184572 -0.26458,0.2645799 1.8e-6,0.1461227 0.1184573,0.2645782 0.26458,0.26458 0.1461227,-1.8e-6 0.2645782,-0.1184573 0.26458,-0.26458 -1.8e-6,-0.1461227 -0.1184573,-0.2645781 -0.26458,-0.2645799 z m 10.0541702,0 c -0.146127,-3.8e-6 -0.264588,0.1184533 -0.26459,0.2645799 2e-6,0.1461266 0.118463,0.2645837 0.26459,0.26458 0.146123,-1.8e-6 0.264578,-0.1184573 0.26458,-0.26458 -2e-6,-0.1461227 -0.118457,-0.2645781 -0.26458,-0.2645799 z m -7.9375002,5.106e-4 c -0.14532,5.689e-4 -0.26299,0.11823 -0.2635502,0.26355 -5.82e-4,0.14613 0.11742,0.26505 0.2635502,0.26562 h 1.07022 c 0.14693,5.688e-4 0.2661898,-0.11868 0.2656099,-0.26562 -5.821e-4,-0.14612 -0.1194901,-0.26412 -0.2656099,-0.26355 z m 10.0546802,0 c -0.14612,-5.689e-4 -0.26505,0.11743 -0.26562,0.26355 -5.82e-4,0.14694 0.11869,0.26619 0.26562,0.26562 h 1.07022 c 0.14693,5.693e-4 0.26619,-0.1186807 0.26562,-0.2656207 -5.9e-4,-0.14612 -0.11949,-0.26412 -0.26562,-0.26355 z M 1.8515968,3.1760468 H 5.0276366 V 3.7052166 H 1.8515968 Z m 10.0546902,0 h 3.17603 v 0.5291698 h -3.17603 z M 1.3224368,4.2323166 h 1.32395 v 1.5880101 h -1.32395 c -0.15116,0 -0.26355,-0.1123899 -0.26355,-0.2635501 V 4.4979268 c 0,-0.1511601 0.11239,-0.2656102 0.26355,-0.2656102 z m 1.85363,0 h 2.3807298 c 0.1511602,0 0.2635501,0.1144501 0.2635501,0.2656102 v 1.0588498 c 0,0.1511602 -0.1123899,0.2635501 -0.2635501,0.2635501 H 3.1760668 Z m 8.2010502,0 h 1.32188 v 1.5880101 h -1.32188 c -0.15116,0 -0.26355,-0.1123899 -0.26355,-0.2635501 V 4.4979268 c 0,-0.1511601 0.11239,-0.2656102 0.26355,-0.2656102 z m 1.85157,0 h 2.3828 c 0.15116,0 0.26355,0.1144501 0.26355,0.2656102 v 1.0588498 c 0,0.1511602 -0.11239,0.2635501 -0.26355,0.2635501 h -2.3828 z M 3.9687868,4.7614767 c -0.1463299,5.821e-4 -0.26441,0.1198099 -0.2635502,0.2661401 5.557e-4,0.14532 0.1182302,0.26298 0.2635502,0.2635499 h 1.07022 c 0.1461198,5.821e-4 0.26504,-0.11743 0.2656099,-0.2635499 8.731e-4,-0.1471401 -0.1184799,-0.26671 -0.2656099,-0.2661401 z m 10.0546802,0 c -0.14714,-5.821e-4 -0.26648,0.119 -0.26562,0.2661401 5.82e-4,0.1461199 0.1195,0.2641198 0.26562,0.2635499 h 1.07022 c 0.14613,5.821e-4 0.26505,-0.11743 0.26562,-0.2635499 8.73e-4,-0.1471401 -0.11848,-0.26671 -0.26562,-0.2661401 z m -12.1713502,0.00101 c -0.1461266,1.6e-6 -0.2645837,0.1184632 -0.26458,0.2645899 1.8e-6,0.1461228 0.1184573,0.2645781 0.26458,0.2645799 0.1461227,-1.8e-6 0.2645782,-0.1184571 0.26458,-0.2645799 3.7e-6,-0.1461267 -0.1184534,-0.2645883 -0.26458,-0.2645899 z m 10.0541702,0 c -0.146131,-3.7e-6 -0.264594,0.1184593 -0.26459,0.2645899 2e-6,0.1461265 0.118463,0.2645836 0.26459,0.2645799 0.146123,-1.8e-6 0.264578,-0.1184571 0.26458,-0.2645799 4e-6,-0.1461267 -0.118453,-0.2645883 -0.26458,-0.2645899 z m -3.7873705,3.704165 h 0.69557 l 0.0977,0.65061 c 0.015902,0.10714 0.0956,0.19374 0.2010201,0.21859 0.31832,0.0731 0.6221897,0.19924 0.8986494,0.3731 0.0925,0.058 0.21111,0.0533 0.29869,-0.0119 l 0.529171,-0.39223 0.49247,0.49196 -0.39067,0.5276193 c -0.0643,0.0871 -0.069,0.20463 -0.0119,0.29662 0.1733,0.2773 0.29894,0.58128 0.37104,0.9002 0.024,0.1066 0.11104,0.18749 0.21911,0.20361 l 0.65009,0.0971 v 0.69763 l -0.64854,0.0956 c -0.10772,0.0162 -0.19448,0.0968 -0.21859,0.20309 -0.0731,0.31846 -0.19913,0.62206 -0.37311,0.89865 -0.058,0.0925 -0.0533,0.21112 0.0119,0.29869 l 0.39067,0.5271 -0.49247,0.49454 -0.527101,-0.39067 c -0.0872,-0.0645 -0.20503,-0.0692 -0.29714,-0.0119 -0.2771997,0.17305 -0.5814396,0.29694 -0.9002096,0.36897 -0.1063897,0.0242 -0.1870398,0.11119 -0.2030799,0.21911 l -0.0977,0.65215 h -0.69557 l -0.0971,-0.6506 c -0.016301,-0.10787 -0.0972,-0.19467 -0.2036098,-0.21859 -0.3181702,-0.073 -0.62176,-0.19941 -0.8981299,-0.37311 -0.0921,-0.0573 -0.2099001,-0.0526 -0.2971401,0.0119 l -0.5291701,0.39274 -0.4919599,-0.49454 0.38861,-0.52503 c 0.0653,-0.0878 0.0698,-0.20671 0.011401,-0.29921 -0.1732902,-0.2773 -0.2968803,-0.58128 -0.3689702,-0.9002 -0.0244,-0.10687 -0.11214,-0.18763 -0.2206599,-0.20309 l -0.6506109,-0.0956 v -0.69763 l 0.6506101,-0.0971 c 0.1072899,-0.016 0.1939301,-0.0959 0.21859,-0.20154 0.0732,-0.31849 0.199,-0.62157 0.3731099,-0.89814 0.0584,-0.0925 0.0539,-0.21141 -0.011401,-0.2992 l -0.39068,-0.5291693 0.4919599,-0.49196 0.5276199,0.39067 c 0.0872,0.0641 0.20473,0.0686 0.2966201,0.0114 0.2771899,-0.17305 0.5814398,-0.29899 0.9002001,-0.37103 0.1064498,-0.0239 0.1872898,-0.11073 0.2036098,-0.21859 z m 0.34778,1.8515693 c -1.0198298,0 -1.85156,0.83187 -1.85156,1.85156 0,1.01969 0.8317302,1.85364 1.85156,1.85364 1.0198301,0 1.8515695,-0.83395 1.8515695,-1.85364 0,-1.01969 -0.8317394,-1.85156 -1.8515695,-1.85156 z m 0,0.52916 c 0.73392,0 1.3223998,0.58876 1.3223998,1.3224 0,0.73364 -0.5884798,1.32447 -1.3223998,1.32447 -0.73391,0 -1.3239499,-0.59083 -1.3239499,-1.32447 0,-0.73364 0.5900399,-1.3224 1.3239499,-1.3224 z" id="Icon_22" style="color:#000000;font-style:normal;font-variant:normal;font-weight:normal;font-stretch:normal;font-size:medium;line-height:normal;font-family:sans-serif;font-variant-ligatures:normal;font-variant-position:normal;font-variant-caps:normal;font-variant-numeric:normal;font-variant-alternates:normal;font-feature-settings:normal;text-indent:0;text-align:start;text-decoration:none;text-decoration-line:none;text-decoration-style:solid;text-decoration-color:#000000;letter-spacing:normal;word-spacing:normal;text-transform:none;writing-mode:lr-tb;direction:ltr;text-orientation:mixed;dominant-baseline:auto;baseline-shift:baseline;text-anchor:start;white-space:normal;shape-padding:0;clip-rule:nonzero;display:inline;overflow:visible;visibility:visible;isolation:auto;mix-blend-mode:normal;color-interpolation:sRGB;color-interpolation-filters:linearRGB;solid-color:#000000;solid-opacity:1;vector-effect:none;fill:#66a0fe;fill-opacity:1;fill-rule:nonzero;stroke:none;stroke-width:0.99999994;stroke-linecap:round;stroke-linejoin:round;stroke-miterlimit:4;stroke-dasharray:none;stroke-dashoffset:0;stroke-opacity:1;color-rendering:auto;image-rendering:auto;shape-rendering:auto;text-rendering:auto;enable-background:accumulate"/></g></svg>